<?xml version="1.0" standalone="no"?>
<!DOCTYPE svg PUBLIC "-//W3C//DTD SVG 20010904//EN"
 "http://www.w3.org/TR/2001/REC-SVG-20010904/DTD/svg10.dtd">
<svg version="1.0" xmlns="http://www.w3.org/2000/svg"
 width="214.000000pt" height="62.000000pt" viewBox="0 0 214.000000 62.000000"
 preserveAspectRatio="xMidYMid meet">

<g transform="translate(0.000000,62.000000) scale(0.100000,-0.100000)"
fill="rgb(243,232,255)" stroke="#000" stroke-width="2">
<path d="M290 485 c0 -82 -1 -85 -19 -75 -28 14 -97 12 -130 -4 -35 -18 -51
-55 -51 -114 0 -54 18 -85 60 -107 37 -19 67 -19 105 1 19 10 31 11 33 5 2 -6
19 -11 38 -11 l34 0 0 195 0 195 -35 0 -35 0 0 -85z m-22 -131 c25 -17 31 -84
9 -102 -27 -23 -62 -24 -90 -2 -33 26 -35 65 -5 97 25 27 54 29 86 7z"/>
<path d="M1595 544 c-20 -21 -25 -38 -25 -76 0 -41 -3 -51 -20 -55 -14 -4 -20
-14 -20 -34 0 -22 5 -29 20 -29 18 0 20 -7 20 -85 l0 -85 35 0 35 0 0 85 0 85
35 0 c32 0 35 2 35 30 0 28 -3 30 -35 30 -33 0 -35 2 -35 34 0 52 9 66 41 66
18 0 32 7 39 20 16 30 4 40 -51 40 -41 0 -54 -5 -74 -26z"/>
<path d="M1400 500 c0 -5 14 -10 31 -10 17 0 28 4 24 10 -3 6 -17 10 -31 10
-13 0 -24 -4 -24 -10z"/>
<path d="M1380 460 c0 -5 23 -10 50 -10 28 0 50 5 50 10 0 6 -22 10 -50 10
-27 0 -50 -4 -50 -10z"/>
<path d="M745 387 c-30 -30 -35 -42 -35 -81 0 -61 21 -99 64 -120 42 -20 57
-20 102 -1 l35 15 -3 -27 c-2 -17 -13 -33 -30 -43 -27 -15 -31 -14 -99 14 -11
5 -21 -1 -32 -18 -16 -23 -15 -25 11 -42 40 -26 119 -29 162 -6 57 31 70 68
70 210 l0 123 -47 0 c-27 0 -74 2 -106 5 -55 6 -58 5 -92 -29z m152 -39 c7 -6
13 -28 13 -49 0 -63 -61 -90 -107 -47 -65 61 26 153 94 96z"/>
<path d="M1162 398 c-19 -19 -22 -20 -22 -5 0 13 -9 17 -35 17 l-35 0 0 -115
0 -115 35 0 35 0 0 60 c0 74 21 120 53 120 38 0 47 -19 47 -102 l0 -78 35 0
35 0 0 100 c0 87 -3 103 -20 120 -29 29 -98 27 -128 -2z"/>
<path d="M465 301 l55 -110 -25 -53 c-32 -68 -31 -73 7 -72 31 1 32 3 105 169
40 93 73 170 73 172 0 1 -14 3 -31 3 -27 0 -33 -6 -61 -66 -17 -36 -34 -62
-38 -57 -4 4 -18 34 -31 65 -24 57 -24 58 -67 58 l-42 0 55 -109z"/>
<path d="M1390 295 l0 -115 35 0 35 0 0 115 0 115 -35 0 -35 0 0 -115z"/>
<path d="M1801 305 c27 -58 49 -113 49 -121 0 -8 -11 -37 -25 -63 l-24 -49 34
-4 c28 -3 36 0 46 22 10 21 76 174 125 288 l14 32 -32 0 c-31 0 -35 -4 -64
-68 l-31 -67 -31 68 c-31 66 -32 67 -71 67 l-40 0 50 -105z"/>
</g>
</svg>
